<svg width="20" height="21" viewBox="0 0 20 21" fill="none" xmlns="http://www.w3.org/2000/svg">
<path d="M5.36622 3.69508C5.59095 2.76832 6.90901 2.76832 7.13374 3.69508L7.75208 6.24512C7.83232 6.576 8.09066 6.83434 8.42154 6.91457L10.9716 7.53292C11.8983 7.75765 11.8983 9.07571 10.9716 9.30043L8.42154 9.91878C8.09066 9.99901 7.83232 10.2574 7.75208 10.5882L7.13374 13.1383C6.90901 14.065 5.59095 14.065 5.36622 13.1383L4.74788 10.5882C4.66764 10.2574 4.4093 9.99901 4.07842 9.91878L1.52838 9.30043C0.601624 9.07571 0.601623 7.75765 1.52838 7.53292L4.07842 6.91457C4.4093 6.83434 4.66764 6.576 4.74788 6.24512L5.36622 3.69508Z" fill="#20262C"/>
<path d="M12.7895 12.5944C12.9278 12.0241 13.7389 12.0241 13.8772 12.5944L14.2577 14.1637C14.3071 14.3673 14.466 14.5263 14.6697 14.5756L16.2389 14.9562C16.8092 15.0945 16.8092 15.9056 16.2389 16.0439L14.6697 16.4244C14.466 16.4738 14.3071 16.6327 14.2577 16.8364L13.8772 18.4056C13.7389 18.9759 12.9278 18.9759 12.7895 18.4056L12.4089 16.8364C12.3596 16.6327 12.2006 16.4738 11.997 16.4244L10.4277 16.0439C9.8574 15.9056 9.8574 15.0945 10.4277 14.9562L11.997 14.5756C12.2006 14.5263 12.3596 14.3673 12.4089 14.1637L12.7895 12.5944Z" fill="#20262C"/>
<path d="M15.4764 3.59321C15.5672 3.21894 16.0995 3.21894 16.1902 3.59321L16.4399 4.62303C16.4723 4.75666 16.5767 4.86099 16.7103 4.89339L17.7401 5.14311C18.1144 5.23386 18.1144 5.76616 17.7401 5.85691L16.7103 6.10663C16.5767 6.13903 16.4723 6.24336 16.4399 6.37699L16.1902 7.40681C16.0995 7.78108 15.5672 7.78108 15.4764 7.40681L15.2267 6.37699C15.1943 6.24336 15.09 6.13903 14.9563 6.10663L13.9265 5.85691C13.5522 5.76616 13.5522 5.23386 13.9265 5.14311L14.9563 4.89339C15.09 4.86099 15.1943 4.75666 15.2267 4.62303L15.4764 3.59321Z" fill="#20262C"/>
<path fill-rule="evenodd" clip-rule="evenodd" d="M15.8333 3.77592L15.6295 4.61644C15.548 4.95241 15.2857 5.21473 14.9497 5.2962L14.1092 5.50001L14.9497 5.70382C15.2857 5.78529 15.548 6.04761 15.6295 6.38358L15.8333 7.2241L16.0371 6.38358C16.1186 6.04761 16.3809 5.78529 16.7169 5.70382L17.5574 5.50001L16.7169 5.2962C16.3809 5.21473 16.1186 4.95241 16.0371 4.61644L15.8333 3.77592ZM16.2412 3.32081C16.1375 2.89308 15.5291 2.89308 15.4254 3.32081L15.14 4.49775C15.103 4.65047 14.9838 4.7697 14.8311 4.80673L13.6541 5.09212C13.2264 5.19584 13.2264 5.80418 13.6541 5.9079L14.8311 6.19329C14.9838 6.23032 15.103 6.34955 15.14 6.50227L15.4254 7.67921C15.5291 8.10694 16.1375 8.10694 16.2412 7.67921L16.5266 6.50227C16.5636 6.34955 16.6829 6.23032 16.8356 6.19329L18.0125 5.9079C18.4402 5.80418 18.4402 5.19584 18.0125 5.09212L16.8356 4.80673C16.6829 4.7697 16.5636 4.65047 16.5266 4.49775L16.2412 3.32081Z" fill="#20262C"/>
<path d="M5.83331 19.6667C5.37308 19.6667 4.99998 19.2936 4.99998 18.8333C4.99998 18.3731 5.37308 18 5.83331 18C6.29355 18 6.66665 18.3731 6.66665 18.8333C6.66665 19.2936 6.29355 19.6667 5.83331 19.6667Z" fill="#20262C"/>
<path d="M1.66665 16.3333C1.20641 16.3333 0.833313 15.9602 0.833313 15.5C0.833313 15.0398 1.20641 14.6667 1.66665 14.6667C2.12688 14.6667 2.49998 15.0398 2.49998 15.5C2.49998 15.9602 2.12688 16.3333 1.66665 16.3333Z" fill="#20262C"/>
<path d="M10.8333 3.00001C10.3731 3.00001 9.99998 2.62691 9.99998 2.16668C9.99998 1.70644 10.3731 1.33334 10.8333 1.33334C11.2935 1.33334 11.6666 1.70644 11.6666 2.16668C11.6666 2.62691 11.2935 3.00001 10.8333 3.00001Z" fill="#20262C"/>
<path d="M18.3333 12.1667C17.8731 12.1667 17.5 11.7936 17.5 11.3333C17.5 10.8731 17.8731 10.5 18.3333 10.5C18.7935 10.5 19.1666 10.8731 19.1666 11.3333C19.1666 11.7936 18.7935 12.1667 18.3333 12.1667Z" fill="#20262C"/>
</svg>
