<svg width="24" height="24" viewBox="0 0 24 24" fill="none" xmlns="http://www.w3.org/2000/svg">
<rect width="24" height="24" rx="8" fill="#20262C"/>
<path d="M17.0577 10.5999C16.8993 10.5999 16.741 10.5416 16.616 10.4166L11.9993 5.79995L7.3827 10.4166C7.14103 10.6583 6.74103 10.6583 6.49937 10.4166C6.2577 10.175 6.2577 9.77495 6.49937 9.53328L11.5577 4.47495C11.7993 4.23328 12.1993 4.23328 12.441 4.47495L17.4993 9.53328C17.741 9.77495 17.741 10.175 17.4993 10.4166C17.3827 10.5416 17.216 10.5999 17.0577 10.5999Z" fill="white"/>
<path d="M12 19.7082C11.6583 19.7082 11.375 19.4249 11.375 19.0832V5.05827C11.375 4.7166 11.6583 4.43327 12 4.43327C12.3417 4.43327 12.625 4.7166 12.625 5.05827V19.0832C12.625 19.4249 12.3417 19.7082 12 19.7082Z" fill="white"/>
</svg>
