<svg width="24" height="24" viewBox="0 0 24 24" fill="none" xmlns="http://www.w3.org/2000/svg">
<rect width="24" height="24" rx="8" fill="#20262C"/>
<path d="M11.974 3.66667C7.37396 3.66667 3.64062 7.40001 3.64062 12C3.64062 16.6 7.37396 20.3333 11.974 20.3333C16.574 20.3333 20.3073 16.6 20.3073 12C20.3073 7.40001 16.5823 3.66667 11.974 3.66667ZM15.5239 13.025C15.5239 14.4083 14.4072 15.525 13.0239 15.525H10.974C9.59062 15.525 8.47396 14.4083 8.47396 13.025V10.975C8.47396 9.59167 9.59062 8.47501 10.974 8.47501H13.0239C14.4072 8.47501 15.5239 9.59167 15.5239 10.975V13.025Z" fill="white"/>
</svg>
